<?xml version="1.0" standalone="no"?>
<!DOCTYPE svg PUBLIC "-//W3C//DTD SVG 20010904//EN"
 "http://www.w3.org/TR/2001/REC-SVG-20010904/DTD/svg10.dtd">
<svg version="1.0" xmlns="http://www.w3.org/2000/svg"
 width="235.000000pt" height="125.000000pt" viewBox="0 0 235.000000 125.000000"
 preserveAspectRatio="xMidYMid meet">
<metadata>
Created by potrace 1.13, written by Peter Selinger 2001-2015
</metadata>
<g transform="translate(0.000000,125.000000) scale(0.100000,-0.100000)"
fill="#000000" stroke="none">
<path d="M765 1236 c-129 -33 -240 -124 -298 -243 -24 -50 -38 -68 -53 -69
-94 -5 -205 -56 -277 -127 -182 -182 -181 -468 4 -646 220 -212 580 -146 712
130 l32 67 56 6 c52 6 151 46 193 78 18 14 17 16 -16 49 -170 171 -173 455 -6
628 38 40 39 43 22 56 -24 17 -90 51 -128 65 -47 17 -186 21 -241 6z m-179
-332 c65 -18 164 -83 208 -137 75 -93 112 -209 103 -326 -3 -40 -10 -78 -15
-83 -23 -23 -118 -6 -208 37 -119 57 -208 170 -239 304 -14 56 -14 157 0 204
7 26 9 27 54 22 25 -4 69 -13 97 -21z"/>
<path d="M1323 1234 c-54 -14 -113 -41 -147 -69 -19 -15 -19 -16 15 -53 53
-55 77 -93 102 -164 58 -158 16 -350 -103 -465 -40 -39 -35 -49 43 -86 68 -33
121 -47 180 -47 37 0 49 -4 53 -18 22 -72 66 -143 119 -197 97 -96 205 -138
345 -131 139 6 283 94 354 216 135 230 48 521 -191 636 -76 37 -202 61 -209
40 -2 -6 -2 -40 -1 -76 10 -223 -142 -418 -358 -462 -31 -6 -58 -8 -61 -5 -4
3 -9 35 -11 70 -14 176 83 345 249 432 37 20 70 35 73 35 3 -1 26 2 51 6 43 6
45 8 39 32 -31 126 -149 248 -285 298 -61 21 -192 26 -257 8z"/>
</g>
</svg>
